<?xml version="1.0" encoding="UTF-8" standalone="no"?>
<!-- Created with Inkscape (http://www.inkscape.org/) -->

<svg
   width="210mm"
   height="297mm"
   viewBox="0 0 210 297"
   version="1.1"
   id="svg1"
   inkscape:version="1.3.2 (091e20e, 2023-11-25, custom)"
   sodipodi:docname="drawing-1.svg"
   xml:space="preserve"
   xmlns:inkscape="http://www.inkscape.org/namespaces/inkscape"
   xmlns:sodipodi="http://sodipodi.sourceforge.net/DTD/sodipodi-0.dtd"
   xmlns:xlink="http://www.w3.org/1999/xlink"
   xmlns="http://www.w3.org/2000/svg"
   xmlns:svg="http://www.w3.org/2000/svg"><sodipodi:namedview
     id="namedview1"
     pagecolor="#505050"
     bordercolor="#ffffff"
     borderopacity="1"
     inkscape:showpageshadow="0"
     inkscape:pageopacity="0"
     inkscape:pagecheckerboard="1"
     inkscape:deskcolor="#505050"
     inkscape:document-units="mm"
     showguides="true"
     inkscape:zoom="0.34457073"
     inkscape:cx="652.98641"
     inkscape:cy="590.58993"
     inkscape:window-width="1366"
     inkscape:window-height="705"
     inkscape:window-x="-8"
     inkscape:window-y="-8"
     inkscape:window-maximized="1"
     inkscape:current-layer="layer1" /><defs
     id="defs1"><linearGradient
       id="linearGradient32"
       inkscape:collect="always"><stop
         style="stop-color:#3f0086;stop-opacity:1;"
         offset="0"
         id="stop33" /><stop
         style="stop-color:#0b0b0b;stop-opacity:1;"
         offset="0.74422443"
         id="stop32" /></linearGradient><filter
       inkscape:collect="always"
       style="color-interpolation-filters:sRGB"
       id="filter29"
       x="-0.050954596"
       y="-0.072440288"
       width="1.0935561"
       height="1.1448856"><feGaussianBlur
         inkscape:collect="always"
         stdDeviation="2.0303942"
         id="feGaussianBlur29" /></filter><linearGradient
       inkscape:collect="always"
       xlink:href="#linearGradient32"
       id="linearGradient33"
       x1="-162.22969"
       y1="256.66324"
       x2="199.97031"
       y2="256.66324"
       gradientUnits="userSpaceOnUse" /><filter
       inkscape:collect="always"
       style="color-interpolation-filters:sRGB"
       id="filter35"
       x="-0.032093383"
       y="-0.069513097"
       width="1.0641854"
       height="1.1474627"><feGaussianBlur
         inkscape:collect="always"
         stdDeviation="3.0524412"
         id="feGaussianBlur35" /></filter></defs><g
     inkscape:label="Layer 1"
     inkscape:groupmode="layer"
     id="layer1"><path
       id="path7"
       style="stroke-width:2.905;stroke-linecap:square;stroke-linejoin:miter;paint-order:markers fill stroke;fill:none;fill-opacity:1;stroke:#320367;stroke-opacity:1;stroke-dasharray:none;opacity:0.77264654;filter:url(#filter29)"
       d="M 145.16582 109.24139 C 142.24627 109.24359 140.15316 109.26039 139.71137 109.29875 C 124.28633 110.63857 111.03529 120.09707 104.47579 133.53655 C 97.914892 120.10148 84.666218 110.64605 69.244352 109.30651 C 67.477198 109.15302 39.271696 109.35457 37.437508 109.35457 L 20.445264 126.14527 L 26.485722 126.14527 L 29.472103 126.14372 L 39.196574 126.14372 L 39.196574 126.13649 C 46.305821 126.14289 54.494371 126.18354 63.629708 126.02487 C 73.136742 125.85973 82.940308 135.75938 86.371472 145.0821 L 37.512439 145.0821 L 21.544938 159.08228 L 24.801587 159.08228 L 27.787968 159.08021 L 37.512439 159.08021 L 37.512439 159.08228 L 86.630371 159.08228 C 83.645305 168.11928 74.589671 177.05864 63.669499 177.01348 C 54.734868 176.97655 44.830127 177.12798 37.471615 177.09048 L 37.471615 177.09513 L 28.370878 177.09565 L 24.04091 177.09565 L 20.492289 177.09513 L 37.471615 196.5601 L 39.343335 196.56061 L 39.339718 196.52392 C 43.493954 196.46698 67.961997 195.96289 69.197843 195.85678 C 84.712396 194.52469 97.935164 185.01986 104.47993 171.6164 C 111.0261 185.01548 124.24653 194.51669 139.75788 195.84851 C 141.05705 195.96006 169.24218 196.53986 171.14718 196.54563 L 171.15028 196.55234 L 171.48411 196.55234 L 171.81742 196.55234 L 184.91223 177.08893 L 177.17472 177.08893 L 171.48411 177.08635 L 171.48411 177.08221 C 164.12559 177.11971 154.22085 176.96829 145.28622 177.00522 C 132.05907 177.05992 121.54192 163.93322 121.27115 153.41751 L 121.31301 150.7076 C 121.90509 140.29435 133.84713 125.81721 145.32601 126.0166 C 155.13749 126.18702 164.04126 125.96913 171.48411 126.23829 L 177.18557 126.51011 L 185.48222 126.90543 L 185.48222 126.23829 L 171.48411 109.40676 C 171.40257 109.40381 170.23976 109.39778 170.0568 109.39436 L 170.04492 109.38144 L 170.04905 109.39436 C 167.16667 109.34046 153.39762 109.2352 145.16582 109.24139 z " /><g
       id="g7"
       transform="matrix(0.41341146,0,0,0.41341146,97.266596,-30.198765)"
       style="fill:#0b0b0b;fill-opacity:1;stroke:#400483;stroke-opacity:1;filter:url(#filter35);opacity:0.78863233;stroke-width:6.07868974;stroke-dasharray:none">
	
	
	
	<path
   class="st0"
   d="m 30.405315,210.05649 c 54.594,2.596 108.326995,24.554 150.053995,65.994 l 19.511,-19.641 c -49.847,-49.535 -115.241995,-74.319 -180.488999,-74.302 -65.806,-0.017 -131.742001,25.21 -181.711001,75.507 l 19.641,19.511 c 44.598001,-44.885 103.268001,-67.315 162.070001,-67.331 3.641004,0 7.290004,0.09 10.924004,0.262 z"
   id="path4"
   style="fill:#0b0b0b;fill-opacity:1;stroke:#400483;stroke-opacity:1;stroke-width:6.07868974;stroke-dasharray:none" />
	<path
   class="st0"
   d="m 131.52031,303.357 19.502,-19.642 c -36.364,-36.142 -84.109995,-54.233 -131.708999,-54.216 -6.004,0 -12.0059999,0.283 -17.9849999,0.856 -41.8750001,4.014 -82.7160011,22.127 -114.6100011,54.238 l 19.650001,19.518 c 31.081,-31.295 71.94,-46.91 112.945,-46.926 40.645004,0.017 81.173999,15.36 112.206999,46.172 z"
   id="path5"
   style="fill:#0b0b0b;fill-opacity:1;stroke:#400483;stroke-opacity:1;stroke-width:6.07868974;stroke-dasharray:none" />
	<path
   class="st0"
   d="m 19.150311,304.69 c 22.996004,0.025 45.860004,8.685 63.410004,26.104 L 102.07831,311.152 C 79.197315,288.394 49.099315,276.995 19.149311,277.003 -11.05569,276.995 -41.39069,288.599 -64.33769,311.701 l 19.634,19.518 c 15.401,-15.479 34.9770001,-24.164 55.168001,-26.108 2.887,-0.278 5.79,-0.417 8.686,-0.421 z"
   id="path6"
   style="fill:#0b0b0b;fill-opacity:1;stroke:#400483;stroke-opacity:1;stroke-width:6.07868974;stroke-dasharray:none" />
	
</g><path
       id="path29"
       style="stroke-width:3.505;stroke-linecap:square;stroke-linejoin:miter;paint-order:markers fill stroke;fill:#0b0b0b;fill-opacity:1;stroke:none;stroke-opacity:1;stroke-dasharray:none;opacity:1"
       d="M 145.16582 109.24139 C 142.24627 109.24359 140.15316 109.26039 139.71137 109.29875 C 124.28633 110.63857 111.03529 120.09707 104.47579 133.53655 C 97.914892 120.10148 84.666218 110.64605 69.244352 109.30651 C 67.477198 109.15302 39.271696 109.35457 37.437508 109.35457 L 20.445264 126.14527 L 26.485722 126.14527 L 29.472103 126.14372 L 39.196574 126.14372 L 39.196574 126.13649 C 46.305821 126.14289 54.494371 126.18354 63.629708 126.02487 C 73.136742 125.85973 82.940308 135.75938 86.371472 145.0821 L 37.512439 145.0821 L 21.544938 159.08228 L 24.801587 159.08228 L 27.787968 159.08021 L 37.512439 159.08021 L 37.512439 159.08228 L 86.630371 159.08228 C 83.645305 168.11928 74.589671 177.05864 63.669499 177.01348 C 54.734868 176.97655 44.830127 177.12798 37.471615 177.09048 L 37.471615 177.09513 L 28.370878 177.09565 L 24.04091 177.09565 L 20.492289 177.09513 L 37.471615 196.5601 L 39.343335 196.56061 L 39.339718 196.52392 C 43.493954 196.46698 67.961997 195.96289 69.197843 195.85678 C 84.712396 194.52469 97.935164 185.01986 104.47993 171.6164 C 111.0261 185.01548 124.24653 194.51669 139.75788 195.84851 C 141.05705 195.96006 169.24218 196.53986 171.14718 196.54563 L 171.15028 196.55234 L 171.48411 196.55234 L 171.81742 196.55234 L 184.91223 177.08893 L 177.17472 177.08893 L 171.48411 177.08635 L 171.48411 177.08221 C 164.12559 177.11971 154.22085 176.96829 145.28622 177.00522 C 132.05907 177.05992 121.54192 163.93322 121.27115 153.41751 L 121.31301 150.7076 C 121.90509 140.29435 133.84713 125.81721 145.32601 126.0166 C 155.13749 126.18702 164.04126 125.96913 171.48411 126.23829 L 177.18557 126.51011 L 185.48222 126.90543 L 185.48222 126.23829 L 171.48411 109.40676 C 171.40257 109.40381 170.23976 109.39778 170.0568 109.39436 L 170.04492 109.38144 L 170.04905 109.39436 C 167.16667 109.34046 153.39762 109.2352 145.16582 109.24139 z " /><g
       id="g32"
       transform="matrix(0.41341146,0,0,0.41341146,97.266596,-30.198765)"
       style="fill:#0b0b0b;fill-opacity:1">
	
	
	
	<path
   class="st0"
   d="m 30.405315,210.05649 c 54.594,2.596 108.326995,24.554 150.053995,65.994 l 19.511,-19.641 c -49.847,-49.535 -115.241995,-74.319 -180.488999,-74.302 -65.806,-0.017 -131.742001,25.21 -181.711001,75.507 l 19.641,19.511 c 44.598001,-44.885 103.268001,-67.315 162.070001,-67.331 3.641004,0 7.290004,0.09 10.924004,0.262 z"
   id="path30"
   style="fill:#0b0b0b;fill-opacity:1" />
	<path
   class="st0"
   d="m 131.52031,303.357 19.502,-19.642 c -36.364,-36.142 -84.109995,-54.233 -131.708999,-54.216 -6.004,0 -12.0059999,0.283 -17.9849999,0.856 -41.8750001,4.014 -82.7160011,22.127 -114.6100011,54.238 l 19.650001,19.518 c 31.081,-31.295 71.94,-46.91 112.945,-46.926 40.645004,0.017 81.173999,15.36 112.206999,46.172 z"
   id="path31"
   style="fill:#0b0b0b;fill-opacity:1" />
	<path
   class="st0"
   d="m 19.150311,304.69 c 22.996004,0.025 45.860004,8.685 63.410004,26.104 L 102.07831,311.152 C 79.197315,288.394 49.099315,276.995 19.149311,277.003 -11.05569,276.995 -41.39069,288.599 -64.33769,311.701 l 19.634,19.518 c 15.401,-15.479 34.9770001,-24.164 55.168001,-26.108 2.887,-0.278 5.79,-0.417 8.686,-0.421 z"
   id="path32"
   style="fill:#0b0b0b;fill-opacity:1" />
	
</g></g><style
     type="text/css"
     id="style1">
	.st0{fill:#000000;}
</style></svg>
