<?xml version="1.0" encoding="UTF-8" standalone="no"?>
<!-- Created with Inkscape (http://www.inkscape.org/) -->

<svg
   width="98.367332mm"
   height="86.188095mm"
   viewBox="0 0 98.367332 86.188095"
   version="1.1"
   id="svg1"
   sodipodi:docname="echologo.svg"
   inkscape:version="1.3.2 (091e20e, 2023-11-25, custom)"
   xmlns:inkscape="http://www.inkscape.org/namespaces/inkscape"
   xmlns:sodipodi="http://sodipodi.sourceforge.net/DTD/sodipodi-0.dtd"
   xmlns:xlink="http://www.w3.org/1999/xlink"
   xmlns="http://www.w3.org/2000/svg"
   xmlns:svg="http://www.w3.org/2000/svg">
  <sodipodi:namedview
     id="namedview1"
     pagecolor="#505050"
     bordercolor="#ffffff"
     borderopacity="1"
     inkscape:showpageshadow="0"
     inkscape:pageopacity="0"
     inkscape:pagecheckerboard="1"
     inkscape:deskcolor="#505050"
     inkscape:document-units="mm"
     showgrid="false"
     inkscape:zoom="1.1915584"
     inkscape:cx="185.4714"
     inkscape:cy="162.39238"
     inkscape:window-width="1366"
     inkscape:window-height="705"
     inkscape:window-x="-8"
     inkscape:window-y="-8"
     inkscape:window-maximized="1"
     inkscape:current-layer="layer1" />
  <defs
     id="defs1">
    <linearGradient
       id="linearGradient2"
       inkscape:collect="always">
      <stop
         style="stop-color:#ffffff;stop-opacity:1;"
         offset="0"
         id="stop1" />
      <stop
         style="stop-color:#009ca0;stop-opacity:1;"
         offset="1"
         id="stop2" />
    </linearGradient>
    <linearGradient
       id="linearGradient21"
       inkscape:collect="always">
      <stop
         style="stop-color:#067879;stop-opacity:1;"
         offset="0"
         id="stop21" />
      <stop
         style="stop-color:#00a4a6;stop-opacity:1;"
         offset="1"
         id="stop22" />
    </linearGradient>
    <linearGradient
       inkscape:collect="always"
       xlink:href="#linearGradient21"
       id="linearGradient22"
       x1="62.45335"
       y1="142.85986"
       x2="157.03867"
       y2="142.85986"
       gradientUnits="userSpaceOnUse"
       gradientTransform="translate(60.562343,99.765818)" />
    <filter
       inkscape:collect="always"
       style="color-interpolation-filters:sRGB"
       id="filter22"
       x="-0.026060666"
       y="-0.029953535"
       width="1.0557597"
       height="1.0576121">
      <feGaussianBlur
         inkscape:collect="always"
         stdDeviation="0.7879194"
         id="feGaussianBlur22" />
    </filter>
    <linearGradient
       inkscape:collect="always"
       xlink:href="#linearGradient2"
       id="linearGradient22-0"
       x1="62.45335"
       y1="142.85986"
       x2="157.03867"
       y2="142.85986"
       gradientUnits="userSpaceOnUse"
       gradientTransform="translate(60.562345,99.765819)" />
  </defs>
  <g
     inkscape:label="Layer 1"
     inkscape:groupmode="layer"
     id="layer1"
     transform="translate(-60.562343,-99.765818)">
    <path
       id="path1-1"
       style="fill:none;fill-opacity:1;stroke:url(#linearGradient22);stroke-width:1.1;stroke-linecap:square;stroke-dasharray:none;stroke-opacity:1;paint-order:markers fill stroke;filter:url(#filter22)"
       d="m 109.22434,102.21033 c -20.84586,0.21218 -38.78027,10.09818 -45.50575,24.05848 h 20.19618 v 6.52932 H 70.33214 v 4.3527 h 13.58263 l -13.58263,6.5288 v 4.35271 h 13.58263 v 6.52932 H 65.6239 c 0.77365,1.15266 1.62403,2.2912 2.6262,3.40444 0,0 0.85963,6.09386 -1.21853,11.0417 -1.69168,4.02769 -4.0411,14.69213 -4.0411,14.69213 0,0 8.73705,-9.94649 13.29738,-12.62094 4.11944,-2.41588 8.19123,-1.76888 8.19123,-1.76888 7.74319,3.48259 16.64319,5.31356 25.71161,5.2896 19.10546,-0.072 35.6406,-8.2027 43.65573,-20.03805 h -17.86454 v -28.29285 h 20.18068 c -6.55357,-13.58028 -23.79814,-23.48663 -44.44897,-24.03781 -0.83384,-0.0223 -1.66398,-0.0291 -2.48925,-0.0207 z m 24.4936,15.35307 v 36.99826 h -9.05527 v -10.88203 h -4.52737 v 10.88203 l -9.05526,8.70541 v -36.99826 h 9.05526 v 10.88202 h 4.52737 v -10.88202 z m -47.53922,8.70541 h 22.63738 v 10.88202 h -9.05475 v -4.3527 h -4.52789 v 15.23421 h 4.52789 v -4.35271 h 9.05475 v 10.88203 H 86.17872 Z m 58.85791,6.52932 v 15.23421 h 4.52788 v -15.23421 z"
       sodipodi:nodetypes="sccccccccccccscsccccccssccccccccccccccccccccccccccccccc" />
    <path
       id="path1-1-2"
       style="fill:none;fill-opacity:1;stroke:url(#linearGradient22-0);stroke-width:0.3;stroke-linecap:square;stroke-dasharray:none;stroke-opacity:1;paint-order:markers fill stroke"
       d="m 109.59922,102.11877 c -20.845856,0.21218 -38.780266,10.09818 -45.505746,24.05848 h 20.19618 v 6.52932 h -13.58263 v 4.3527 h 13.58263 l -13.58263,6.5288 v 4.35271 h 13.58263 v 6.52932 h -18.29087 c 0.77365,1.15266 1.62403,2.2912 2.6262,3.40444 0,0 0.85963,6.09386 -1.21853,11.0417 -1.69168,4.02769 -4.0411,14.69213 -4.0411,14.69213 0,0 8.73705,-9.94649 13.29738,-12.62094 4.11944,-2.41588 8.19123,-1.76888 8.19123,-1.76888 7.74319,3.48259 16.643186,5.31356 25.711606,5.2896 19.10546,-0.072 35.6406,-8.2027 43.65573,-20.03805 h -17.86454 v -28.29285 h 20.18068 c -6.55357,-13.58028 -23.79814,-23.48663 -44.44897,-24.03781 -0.83384,-0.0223 -1.66398,-0.0291 -2.48925,-0.0207 z m 24.4936,15.35307 v 36.99826 h -9.05527 v -10.88203 h -4.52737 v 10.88203 l -9.05526,8.70541 v -36.99826 h 9.05526 v 10.88202 h 4.52737 v -10.88202 z m -47.539216,8.70541 h 22.637376 v 10.88202 h -9.05475 v -4.3527 h -4.527886 v 15.23421 h 4.527886 v -4.35271 h 9.05475 V 154.4701 H 86.553604 Z m 58.857906,6.52932 v 15.23421 h 4.52788 v -15.23421 z"
       sodipodi:nodetypes="sccccccccccccscsccccccssccccccccccccccccccccccccccccccc" />
  </g>
</svg>
