<?xml version="1.0" encoding="UTF-8" standalone="no"?>
<!-- Created with Inkscape (http://www.inkscape.org/) -->

<svg
   width="395.35831mm"
   height="119.15562mm"
   viewBox="0 0 395.35831 119.15561"
   version="1.1"
   id="svg1"
   inkscape:export-filename="logo.png"
   inkscape:export-xdpi="96"
   inkscape:export-ydpi="96"
   inkscape:version="1.3.2 (091e20e, 2023-11-25, custom)"
   sodipodi:docname="logo.svg"
   xmlns:inkscape="http://www.inkscape.org/namespaces/inkscape"
   xmlns:sodipodi="http://sodipodi.sourceforge.net/DTD/sodipodi-0.dtd"
   xmlns="http://www.w3.org/2000/svg"
   xmlns:svg="http://www.w3.org/2000/svg">
  <sodipodi:namedview
     id="namedview1"
     pagecolor="#000000"
     bordercolor="#ffffff"
     borderopacity="1"
     inkscape:showpageshadow="0"
     inkscape:pageopacity="0"
     inkscape:pagecheckerboard="false"
     inkscape:deskcolor="#505050"
     inkscape:document-units="mm"
     showguides="true"
     inkscape:zoom="0.33197215"
     inkscape:cx="677.76769"
     inkscape:cy="272.61323"
     inkscape:window-width="1366"
     inkscape:window-height="705"
     inkscape:window-x="-8"
     inkscape:window-y="-8"
     inkscape:window-maximized="1"
     inkscape:current-layer="layer1" />
  <defs
     id="defs1">
    <inkscape:path-effect
       effect="perspective-envelope"
       up_left_point="-84.794475,532.1773"
       up_right_point="15.143099,513.01599"
       down_left_point="-84.794475,883.46871"
       down_right_point="15.143099,902.63001"
       id="path-effect8"
       is_visible="true"
       lpeversion="1"
       deform_type="perspective"
       horizontal_mirror="false"
       vertical_mirror="false"
       overflow_perspective="false" />
  </defs>
  <g
     inkscape:label="Layer 1"
     inkscape:groupmode="layer"
     id="layer1"
     transform="translate(-22.018511,-61.369342)">
    <g
       id="g180"
       style="fill:#550055;fill-opacity:1;stroke:none"
       transform="translate(-486.92317,76.512442)">
      <path
         d="m 542.922,53.7404 h 25.048 l -6.083,15.0953 h -25.936 l 6.971,-15.0953"
         style="fill:#550055;fill-opacity:1;stroke:none;stroke-width:1px;stroke-linejoin:round;stroke-opacity:0.6"
         id="path94" />
      <path
         d="m 567.97,53.7404 2.003,13.563 -6.012,16.625 -2.074,-15.0927 6.083,-15.0953"
         style="fill:#550055;fill-opacity:1;stroke:none;stroke-width:1px;stroke-linejoin:round;stroke-opacity:0.6"
         id="path95" />
      <path
         d="m 569.973,67.3034 h -41.149 l -7.471,16.625 h 42.608 l 6.012,-16.625"
         style="fill:#550055;fill-opacity:1;stroke:none;stroke-width:1px;stroke-linejoin:round;stroke-opacity:0.6"
         id="path96" />
      <path
         d="m 528.824,67.3034 -11.842,-61.7639 -7.891,9.659 12.262,68.7299 7.471,-16.625"
         style="fill:#550055;fill-opacity:1;stroke:none;stroke-width:1px;stroke-linejoin:round;stroke-opacity:0.6"
         id="path97" />
      <path
         d="m 516.982,5.5395 43.871,-2e-5 -6.335,9.65902 h -45.427 l 7.891,-9.659"
         style="fill:#550055;fill-opacity:1;stroke:none;stroke-width:1px;stroke-linejoin:round;stroke-opacity:0.6"
         id="path98" />
      <path
         d="m 560.853,5.53948 2.21,14.96772 -6.257,11.3471 -2.288,-16.6558 6.335,-9.65902"
         style="fill:#550055;fill-opacity:1;stroke:none;stroke-width:1px;stroke-linejoin:round;stroke-opacity:0.6"
         id="path99" />
      <path
         d="m 563.063,20.5072 -25.927,-10e-5 -7.176,11.3472 h 26.846 l 6.257,-11.3471"
         style="fill:#550055;fill-opacity:1;stroke:none;stroke-width:1px;stroke-linejoin:round;stroke-opacity:0.6"
         id="path100" />
      <path
         d="m 537.136,20.5071 1.694,9.7308 -7.39778,13.184382 L 529.96,31.8543 537.136,20.5071"
         style="fill:#550055;fill-opacity:1;stroke:none;stroke-width:1px;stroke-linejoin:round;stroke-opacity:0.6"
         id="path101"
         sodipodi:nodetypes="ccccc" />
      <path
         d="m 538.83,30.2379 25.67,10e-5 -6.206,12.4446 -27.14357,1.021466 L 538.83,30.2379"
         style="fill:#550055;fill-opacity:1;stroke:none;stroke-width:1px;stroke-linejoin:round;stroke-opacity:0.6"
         id="path102"
         sodipodi:nodetypes="ccccc" />
      <path
         d="M 564.5,30.238 541.309,44.4774 534.281,58.5279 558.01222,43.03483 564.5,30.238"
         style="fill:#550055;fill-opacity:1;stroke:none;stroke-width:1px;stroke-linejoin:round;stroke-opacity:0.6"
         id="path103"
         sodipodi:nodetypes="ccccc" />
      <path
         d="m 541.309,44.4774 1.613,9.263 -6.971,15.0953 -1.67,-10.3078 7.028,-14.0505"
         style="fill:#550055;fill-opacity:1;stroke:none;stroke-width:1px;stroke-linejoin:round;stroke-opacity:0.6"
         id="path104" />
      <path
         d="m 593.312,20.5071 h -8.643 l -5.491,11.3472 8.948,-10e-5 5.186,-11.3471"
         style="fill:#550055;fill-opacity:1;stroke:none;stroke-width:1px;stroke-linejoin:round;stroke-opacity:0.6"
         id="path105" />
      <path
         d="m 584.669,20.5071 4.175,33.2333 -5.343,15.0954 -4.323,-36.9815 5.491,-11.3472"
         style="fill:#550055;fill-opacity:1;stroke:none;stroke-width:1px;stroke-linejoin:round;stroke-opacity:0.6"
         id="path106" />
      <path
         d="m 588.844,53.7404 h 8.349 l -5.047,15.0953 -8.645,1e-4 5.343,-15.0954"
         style="fill:#550055;fill-opacity:1;stroke:none;stroke-width:1px;stroke-linejoin:round;stroke-opacity:0.6"
         id="path107" />
      <path
         d="m 597.193,53.7404 -1.082,-9.2631 -5.085,14.0506 1.12,10.3078 5.047,-15.0953"
         style="fill:#550055;fill-opacity:1;stroke:none;stroke-width:1px;stroke-linejoin:round;stroke-opacity:0.6"
         id="path108" />
      <path
         d="m 596.111,44.4773 16.862,1e-4 -4.488,14.0506 -17.459,-10e-5 5.085,-14.0506"
         style="fill:#550055;fill-opacity:1;stroke:none;stroke-width:1px;stroke-linejoin:round;stroke-opacity:0.6"
         id="path109" />
      <path
         d="m 612.973,44.4774 2.264,22.8261 -4.408,16.625 -2.344,-25.4005 4.488,-14.0506"
         style="fill:#550055;fill-opacity:1;stroke:none;stroke-width:1px;stroke-linejoin:round;stroke-opacity:0.6"
         id="path110" />
      <path
         d="m 615.237,67.3035 -41.149,-1e-4 -5.866,16.625 42.607,1e-4 4.408,-16.625"
         style="fill:#550055;fill-opacity:1;stroke:none;stroke-width:1px;stroke-linejoin:round;stroke-opacity:0.6"
         id="path111" />
      <path
         d="m 574.088,67.3034 -8.848,-61.7639 -6.179,9.659 9.161,68.7299 5.866,-16.625"
         style="fill:#550055;fill-opacity:1;stroke:none;stroke-width:1px;stroke-linejoin:round;stroke-opacity:0.6"
         id="path112" />
      <path
         d="m 565.24,5.5395 43.872,-2e-5 -4.625,9.65902 h -45.426 l 6.179,-9.659"
         style="fill:#550055;fill-opacity:1;stroke:none;stroke-width:1px;stroke-linejoin:round;stroke-opacity:0.6"
         id="path113" />
      <path
         d="m 609.112,5.53948 2.449,24.69852 -4.538,12.4446 -2.536,-27.4841 4.625,-9.65902"
         style="fill:#550055;fill-opacity:1;stroke:none;stroke-width:1px;stroke-linejoin:round;stroke-opacity:0.6"
         id="path114" />
      <path
         d="m 611.561,30.238 h -17.113 l -5.145,12.4446 h 17.72 l 4.538,-12.4446"
         style="fill:#550055;fill-opacity:1;stroke:none;stroke-width:1px;stroke-linejoin:round;stroke-opacity:0.6"
         id="path115" />
      <path
         d="m 594.448,30.238 -1.136,-9.7309 -5.186,11.3471 1.177,10.8284 5.145,-12.4446"
         style="fill:#550055;fill-opacity:1;stroke:none;stroke-width:1px;stroke-linejoin:round;stroke-opacity:0.6"
         id="path116" />
      <path
         d="m 634.051,44.4773 1.761,22.8261 -3.68,16.625 -1.823,-25.4005 3.742,-14.0506"
         style="fill:#550055;fill-opacity:1;stroke:none;stroke-width:1px;stroke-linejoin:round;stroke-opacity:0.6"
         id="path117" />
      <path
         d="m 635.812,67.3034 -14.802,17.4911 -4.204,18.5975 15.326,-19.4636 3.68,-16.625"
         style="fill:#550055;fill-opacity:1;stroke:none;stroke-width:1px;stroke-linejoin:round;stroke-opacity:0.6"
         id="path118" />
      <path
         d="m 621.01,84.7945 -7.511,-79.255 -4.47,9.659 7.777,88.1935 4.204,-18.5975"
         style="fill:#550055;fill-opacity:1;stroke:none;stroke-width:1px;stroke-linejoin:round;stroke-opacity:0.6"
         id="path119" />
      <path
         d="m 613.499,5.5395 17.549,-2e-5 -3.848,9.65902 h -18.171 l 4.47,-9.659"
         style="fill:#550055;fill-opacity:1;stroke:none;stroke-width:1px;stroke-linejoin:round;stroke-opacity:0.6"
         id="path120" />
      <path
         d="m 631.048,5.53948 1.905,24.69852 -3.78,12.4446 -1.973,-27.4841 3.848,-9.65902"
         style="fill:#550055;fill-opacity:1;stroke:none;stroke-width:1px;stroke-linejoin:round;stroke-opacity:0.6"
         id="path121" />
      <path
         d="m 632.953,30.238 h 8.556 l -3.477,12.4446 h -8.859 l 3.78,-12.4446"
         style="fill:#550055;fill-opacity:1;stroke:none;stroke-width:1px;stroke-linejoin:round;stroke-opacity:0.6"
         id="path122" />
      <path
         d="m 641.509,30.238 -1.687,-24.6985 -3.537,9.659 1.747,27.4841 3.477,-12.4446"
         style="fill:#550055;fill-opacity:1;stroke:none;stroke-width:1px;stroke-linejoin:round;stroke-opacity:0.6"
         id="path123" />
      <path
         d="m 639.822,5.5395 16.5,-20.6826 -2.952,7.3264 -17.085,23.0152 3.537,-9.659"
         style="fill:#550055;fill-opacity:1;stroke:none;stroke-width:1px;stroke-linejoin:round;stroke-opacity:0.6"
         id="path124" />
      <path
         d="m 656.322,-15.1431 4.179,82.4465 -2.804,16.625 -4.327,-91.7451 2.952,-7.3264"
         style="fill:#550055;fill-opacity:1;stroke:none;stroke-width:1px;stroke-linejoin:round;stroke-opacity:0.6"
         id="path125" />
      <path
         d="m 660.501,67.3034 h -16.459 l -3.388,16.625 h 17.043 l 2.804,-16.625"
         style="fill:#550055;fill-opacity:1;stroke:none;stroke-width:1px;stroke-linejoin:round;stroke-opacity:0.6"
         id="path126" />
      <path
         d="m 644.042,67.3034 -1.559,-22.8261 -3.444,14.0506 1.615,25.4005 3.388,-16.625"
         style="fill:#550055;fill-opacity:1;stroke:none;stroke-width:1px;stroke-linejoin:round;stroke-opacity:0.6"
         id="path127" />
      <path
         d="m 642.483,44.4773 h -8.432 l -3.742,14.0506 h 8.73 l 3.444,-14.0506"
         style="fill:#550055;fill-opacity:1;stroke:none;stroke-width:1px;stroke-linejoin:round;stroke-opacity:0.6"
         id="path128" />
      <path
         d="m 680.687,53.7404 h 8.35 l -1.793,15.0953 h -8.646 l 2.089,-15.0953"
         style="fill:#550055;fill-opacity:1;stroke:none;stroke-width:1px;stroke-linejoin:round;stroke-opacity:0.6"
         id="path129" />
      <path
         d="m 689.037,53.7404 -0.659,-33.2333 -1.817,11.3471 0.683,36.9815 1.793,-15.0953"
         style="fill:#550055;fill-opacity:1;stroke:none;stroke-width:1px;stroke-linejoin:round;stroke-opacity:0.6"
         id="path130" />
      <path
         d="m 688.378,20.5071 h -8.643 l -2.122,11.3472 8.948,-10e-5 1.817,-11.3471"
         style="fill:#550055;fill-opacity:1;stroke:none;stroke-width:1px;stroke-linejoin:round;stroke-opacity:0.6"
         id="path131" />
      <path
         d="m 679.735,20.5071 0.952,33.2333 -2.089,15.0953 -0.985,-36.9814 2.122,-11.3472"
         style="fill:#550055;fill-opacity:1;stroke:none;stroke-width:1px;stroke-linejoin:round;stroke-opacity:0.6"
         id="path132" />
      <path
         d="m 664.616,67.3034 -2.858,-61.76393 -2.76,9.65903 2.96,68.7299 2.658,-16.625"
         style="fill:#550055;fill-opacity:1;stroke:none;stroke-width:1px;stroke-linejoin:round;stroke-opacity:0.6"
         id="path133" />
      <path
         d="m 661.758,5.53947 43.871,1e-5 -1.204,9.65902 h -45.427 l 2.76,-9.65903"
         style="fill:#550055;fill-opacity:1;stroke:none;stroke-width:1px;stroke-linejoin:round;stroke-opacity:0.6"
         id="path134" />
      <path
         d="m 705.629,5.53948 0.136,61.76392 -1.199,16.625 -0.141,-68.7299 1.204,-9.65902"
         style="fill:#550055;fill-opacity:1;stroke:none;stroke-width:1px;stroke-linejoin:round;stroke-opacity:0.6"
         id="path135" />
      <path
         d="m 705.765,67.3034 h -41.149 l -2.658,16.625 h 42.608 l 1.199,-16.625"
         style="fill:#550055;fill-opacity:1;stroke:none;stroke-width:1px;stroke-linejoin:round;stroke-opacity:0.6"
         id="path136" />
      <path
         d="m 735.911,20.5071 h -8.643 l -0.438,11.3472 h 8.949 l 0.132,-11.3472"
         style="fill:#550055;fill-opacity:1;stroke:none;stroke-width:1px;stroke-linejoin:round;stroke-opacity:0.6"
         id="path137" />
      <path
         d="m 727.268,20.5071 -0.659,33.2333 -0.462,15.0954 0.683,-36.9815 0.438,-11.3472"
         style="fill:#550055;fill-opacity:1;stroke:none;stroke-width:1px;stroke-linejoin:round;stroke-opacity:0.6"
         id="path138" />
      <path
         d="m 726.609,53.7404 h 8.35 l -0.166,15.0953 -8.646,1e-4 0.462,-15.0954"
         style="fill:#550055;fill-opacity:1;stroke:none;stroke-width:1px;stroke-linejoin:round;stroke-opacity:0.6"
         id="path139" />
      <path
         d="m 734.959,53.7404 0.265,-9.2631 -0.156,14.0506 -0.275,10.3078 0.166,-15.0953"
         style="fill:#550055;fill-opacity:1;stroke:none;stroke-width:1px;stroke-linejoin:round;stroke-opacity:0.6"
         id="path140" />
      <path
         d="m 735.224,44.4773 16.862,1e-4 0.442,14.0506 -17.46,-10e-5 0.156,-14.0506"
         style="fill:#550055;fill-opacity:1;stroke:none;stroke-width:1px;stroke-linejoin:round;stroke-opacity:0.6"
         id="path141" />
      <path
         d="m 752.086,44.4774 -1.056,22.8261 0.404,16.625 1.094,-25.4005 -0.442,-14.0506"
         style="fill:#550055;fill-opacity:1;stroke:none;stroke-width:1px;stroke-linejoin:round;stroke-opacity:0.6"
         id="path142" />
      <path
         d="m 751.03,67.3035 -41.15,-1e-4 -1.054,16.625 42.608,1e-4 -0.404,-16.625"
         style="fill:#550055;fill-opacity:1;stroke:none;stroke-width:1px;stroke-linejoin:round;stroke-opacity:0.6"
         id="path143" />
      <path
         d="m 709.88,67.3034 0.136,-61.7639 -1.049,9.659 -0.141,68.7299 1.054,-16.625"
         style="fill:#550055;fill-opacity:1;stroke:none;stroke-width:1px;stroke-linejoin:round;stroke-opacity:0.6"
         id="path144" />
      <path
         d="m 710.016,5.5395 43.872,-2e-5 0.505,9.65902 h -45.426 l 1.049,-9.659"
         style="fill:#550055;fill-opacity:1;stroke:none;stroke-width:1px;stroke-linejoin:round;stroke-opacity:0.6"
         id="path145" />
      <path
         d="m 753.888,5.53948 -1.143,24.69852 0.464,12.4446 1.184,-27.4841 -0.505,-9.65902"
         style="fill:#550055;fill-opacity:1;stroke:none;stroke-width:1px;stroke-linejoin:round;stroke-opacity:0.6"
         id="path146" />
      <path
         d="m 752.745,30.238 h -17.113 l -0.142,12.4446 h 17.719 L 752.745,30.238"
         style="fill:#550055;fill-opacity:1;stroke:none;stroke-width:1px;stroke-linejoin:round;stroke-opacity:0.6"
         id="path147" />
      <path
         d="m 735.632,30.238 0.279,-9.7309 -0.132,11.3472 -0.289,10.8283 0.142,-12.4446"
         style="fill:#550055;fill-opacity:1;stroke:none;stroke-width:1px;stroke-linejoin:round;stroke-opacity:0.6"
         id="path148" />
      <path
         d="m 773.164,44.4773 -1.56,22.8261 1.133,16.6251 1.615,-25.4005 -1.188,-14.0507"
         style="fill:#550055;fill-opacity:1;stroke:none;stroke-width:1px;stroke-linejoin:round;stroke-opacity:0.6"
         id="path149" />
      <path
         d="m 771.604,67.3034 -17.346,17.4911 0.518,18.5975 17.961,-19.4635 -1.133,-16.6251"
         style="fill:#550055;fill-opacity:1;stroke:none;stroke-width:1px;stroke-linejoin:round;stroke-opacity:0.6"
         id="path150" />
      <path
         d="m 754.258,84.7945 4.017,-79.25503 0.661,9.65913 -4.16,88.1934 -0.518,-18.5975"
         style="fill:#550055;fill-opacity:1;stroke:none;stroke-width:1px;stroke-linejoin:round;stroke-opacity:0.6"
         id="path151" />
      <path
         d="m 758.275,5.53947 17.549,1e-5 1.283,9.65902 -18.171,1e-4 -0.661,-9.65913"
         style="fill:#550055;fill-opacity:1;stroke:none;stroke-width:1px;stroke-linejoin:round;stroke-opacity:0.6"
         id="path152" />
      <path
         d="m 775.824,5.53948 -1.687,24.69852 1.223,12.4446 1.747,-27.4841 -1.283,-9.65902"
         style="fill:#550055;fill-opacity:1;stroke:none;stroke-width:1px;stroke-linejoin:round;stroke-opacity:0.6"
         id="path153" />
      <path
         d="m 774.137,30.238 h 8.556 l 1.526,12.4446 H 775.36 L 774.137,30.238"
         style="fill:#550055;fill-opacity:1;stroke:none;stroke-width:1px;stroke-linejoin:round;stroke-opacity:0.6"
         id="path154" />
      <path
         d="m 782.693,30.238 1.905,-24.6985 1.594,9.659 -1.973,27.4841 -1.526,-12.4446"
         style="fill:#550055;fill-opacity:1;stroke:none;stroke-width:1px;stroke-linejoin:round;stroke-opacity:0.6"
         id="path155" />
      <path
         d="m 784.598,5.5395 19.509,-20.6826 2.285,7.3264 -20.2,23.0152 -1.594,-9.659"
         style="fill:#550055;fill-opacity:1;stroke:none;stroke-width:1px;stroke-linejoin:round;stroke-opacity:0.6"
         id="path156" />
      <path
         d="m 804.107,-15.1431 -7.813,82.4465 2.008,16.625 8.09,-91.7451 -2.285,-7.3264"
         style="fill:#550055;fill-opacity:1;stroke:none;stroke-width:1px;stroke-linejoin:round;stroke-opacity:0.6"
         id="path157" />
      <path
         d="m 796.294,67.3034 h -16.46 l 1.425,16.625 h 17.043 l -2.008,-16.625"
         style="fill:#550055;fill-opacity:1;stroke:none;stroke-width:1px;stroke-linejoin:round;stroke-opacity:0.6"
         id="path158" />
      <path
         d="m 779.834,67.3034 1.761,-22.8261 1.487,14.0506 -1.823,25.4005 -1.425,-16.625"
         style="fill:#550055;fill-opacity:1;stroke:none;stroke-width:1px;stroke-linejoin:round;stroke-opacity:0.6"
         id="path159" />
      <path
         d="m 781.595,44.4773 h -8.431 l 1.188,14.0507 8.73,-10e-5 -1.487,-14.0506"
         style="fill:#550055;fill-opacity:1;stroke:none;stroke-width:1px;stroke-linejoin:round;stroke-opacity:0.6"
         id="path160" />
      <path
         d="m 806.534,5.53937 43.872,1.1e-4 3.925,9.65902 -45.426,1e-4 -2.371,-9.65923"
         style="fill:#550055;fill-opacity:1;stroke:none;stroke-width:1px;stroke-linejoin:round;stroke-opacity:0.6"
         id="path161" />
      <path
         d="m 850.406,5.53948 -8.848,61.76392 3.612,16.625 9.161,-68.7299 -3.925,-9.65902"
         style="fill:#550055;fill-opacity:1;stroke:none;stroke-width:1px;stroke-linejoin:round;stroke-opacity:0.6"
         id="path162" />
      <path
         d="m 841.558,67.3034 h -16.46 l 3.029,16.625 h 17.043 l -3.612,-16.625"
         style="fill:#550055;fill-opacity:1;stroke:none;stroke-width:1px;stroke-linejoin:round;stroke-opacity:0.6"
         id="path163" />
      <path
         d="m 825.098,67.3034 2.867,-22.8261 3.131,14.0506 -2.969,25.4005 -3.029,-16.625"
         style="fill:#550055;fill-opacity:1;stroke:none;stroke-width:1px;stroke-linejoin:round;stroke-opacity:0.6"
         id="path164" />
      <path
         d="m 827.965,44.4773 -8.43,1e-4 2.831,14.0506 8.73,-10e-5 -3.131,-14.0506"
         style="fill:#550055;fill-opacity:1;stroke:none;stroke-width:1px;stroke-linejoin:round;stroke-opacity:0.6"
         id="path165" />
      <path
         d="m 819.535,44.4774 -2.666,22.8261 2.736,16.625 2.761,-25.4005 -2.831,-14.0506"
         style="fill:#550055;fill-opacity:1;stroke:none;stroke-width:1px;stroke-linejoin:round;stroke-opacity:0.6"
         id="path166" />
      <path
         d="m 816.869,67.3035 -18.194,17.4911 2.091,18.5974 18.839,-19.4635 -2.736,-16.625"
         style="fill:#550055;fill-opacity:1;stroke:none;stroke-width:1px;stroke-linejoin:round;stroke-opacity:0.6"
         id="path167" />
      <path
         d="m 798.675,84.7946 7.859,-79.25523 2.371,9.65923 -8.139,88.1934 -2.091,-18.5974"
         style="fill:#550055;fill-opacity:1;stroke:none;stroke-width:1px;stroke-linejoin:round;stroke-opacity:0.6"
         id="path168" />
      <path
         d="m 822.335,20.5071 -1.137,9.7308 2.89,12.4448 1.177,-10.8283 -2.93,-11.3473"
         style="fill:#550055;fill-opacity:1;stroke:none;stroke-width:1px;stroke-linejoin:round;stroke-opacity:0.6"
         id="path169" />
      <path
         d="m 821.198,30.2379 8.556,10e-5 3.194,12.4446 -8.86,10e-5 -2.89,-12.4448"
         style="fill:#550055;fill-opacity:1;stroke:none;stroke-width:1px;stroke-linejoin:round;stroke-opacity:0.6"
         id="path170" />
      <path
         d="m 829.754,30.238 1.222,-9.7308 3.238,11.3471 -1.266,10.8283 -3.194,-12.4446"
         style="fill:#550055;fill-opacity:1;stroke:none;stroke-width:1px;stroke-linejoin:round;stroke-opacity:0.6"
         id="path171" />
      <path
         d="m 830.976,20.5072 -8.641,-10e-5 2.93,11.3473 8.949,-10e-5 -3.238,-11.3471"
         style="fill:#550055;fill-opacity:1;stroke:none;stroke-width:1px;stroke-linejoin:round;stroke-opacity:0.6"
         id="path172" />
      <path
         d="m 882.61966,19.661749 -8.353,46.7963 4.778,16.6251 8.649,-52.0741 -5.074,-11.3473"
         style="fill:#550055;fill-opacity:1;stroke:none;stroke-width:1px;stroke-linejoin:round;stroke-opacity:0.6"
         id="path173"
         sodipodi:nodetypes="ccccc" />
      <path
         d="m 874.478,67.3034 -19.274,17.4911 4.095,18.5975 19.957,-19.4635 -4.778,-16.6251"
         style="fill:#550055;fill-opacity:1;stroke:none;stroke-width:1px;stroke-linejoin:round;stroke-opacity:0.6"
         id="path174" />
      <path
         d="m 855.204,84.7945 10.342,-64.2873 4.462,11.3472 -10.709,71.5376 -4.095,-18.5975"
         style="fill:#550055;fill-opacity:1;stroke:none;stroke-width:1px;stroke-linejoin:round;stroke-opacity:0.6"
         id="path175" />
      <path
         d="m 865.546,20.5072 -12.963,-10e-5 4.28478,10.290511 13.14022,1.056789 -4.462,-11.3472"
         style="fill:#550055;fill-opacity:1;stroke:none;stroke-width:1px;stroke-linejoin:round;stroke-opacity:0.6"
         id="path176"
         sodipodi:nodetypes="ccccc" />
      <path
         d="m 852.583,20.5071 2.21,-14.9677 4.081,9.6591 -2.21755,15.880895 L 852.583,20.5071"
         style="fill:#550055;fill-opacity:1;stroke:none;stroke-width:1px;stroke-linejoin:round;stroke-opacity:0.6"
         id="path177"
         sodipodi:nodetypes="ccccc" />
      <path
         d="m 854.793,5.5394 43.871,8e-5 5.636,9.65902 h -45.426 l -4.081,-9.6591"
         style="fill:#550055;fill-opacity:1;stroke:none;stroke-width:1px;stroke-linejoin:round;stroke-opacity:0.6"
         id="path178" />
      <path
         d="m 898.664,5.53948 -2.87,14.96772 5.25322,10.39608 2.75966,-16.550131 L 898.664,5.53948"
         style="fill:#550055;fill-opacity:1;stroke:none;stroke-width:1px;stroke-linejoin:round;stroke-opacity:0.6"
         id="path179"
         sodipodi:nodetypes="ccccc" />
      <path
         d="m 895.794,20.5072 -12.963,-10e-5 4.79222,10.290611 13.2831,-10e-5 L 895.794,20.5072"
         style="fill:#550055;fill-opacity:1;stroke:none;stroke-width:1px;stroke-linejoin:round;stroke-opacity:0.6"
         id="path180"
         sodipodi:nodetypes="ccccc" />
    </g>
    <path
       d="m -53.276411,542.84127 0,25.06051 -13.479526,1.99034 v -41.1734 l 61.7526548,-11.69085 0.05001,44.21088 -15.305353,1.78775 0,-25.9337 -9.666122,1.68289 v 25.67807 l -14.147091,-23.21503 z m 33.017782,50.44122 -0.216651,-8.00005 -32.803817,4.20033 7.67e-4,8.1543 9.635732,-0.69533 0.434633,16.47777 -23.547972,1.7634 v -41.1734 l 62.1433982,-8.75153 -0.1599325,44.81576 -25.1522797,1.45654 0.0754,-17.41582 z m -23.715136,41.7354 -22.103518,1.29079 -18.065925,-15.36078 79.0117949,-6.28524 0.0015,17.17319 -24.6910656,1.39115 -0.103819,8.26099 24.5316273,-1.67597 20.5353917,16.72381 -81.898154,3.93777 v -16.46936 l 22.684095,-1.54974 z m -9.302646,45.65623 v 8.3535 l 33.017782,-0.65489 v -8.64456 z m -13.479526,-16.08318 61.3628158,-2.83989 -0.1578855,44.32155 -61.2049303,-0.30826 z m 46.497308,71.32692 0,-8.64458 -33.017782,-0.65488 v 8.35351 l 9.204569,0.26371 v 16.86929 l -22.684095,-1.04982 v -41.17341 l 61.3628158,0.13523 v 43.87807 l -24.9000518,-0.89864 0.001,-17.3671 z m -23.813213,37.27367 -22.684095,-1.54974 -18.038538,-17.39117 79.4013538,4.03165 0,17.55122 -24.5316298,-1.67595 v 8.55935 l 24.5316298,1.89221 20.5362202,19.49784 -82.379903,-7.80826 0.20629,-16.51367 22.958672,1.84112 z m 38.6787208,33.35711 V 850.4267 L -66.755937,841.63656 V 825.1672 l 22.684095,2.84953 v -8.43464 l -23.062092,-2.66029 -17.359478,-18.41142 z m -14.8655078,15.81489 -9.666122,-1.12903 v 8.55936 l 9.666122,1.21424 z m 0,60.51199 -47.226016,-8.35919 -17.18719,-19.46465 64.413206,10.53467 V 852.6195 l 14.8655078,2.19499 0,43.87806 -14.8655078,-2.85021 z"
       id="path7"
       style="font-size:82.6948px;line-height:0px;font-family:'Space Shards';-inkscape-font-specification:'Space Shards';letter-spacing:0px;word-spacing:0px;writing-mode:vertical-lr;fill:#800080;fill-opacity:1;stroke-width:0.228477"
       aria-label="Echochat"
       inkscape:path-effect="#path-effect8"
       inkscape:original-d="m -56.52965,548.32863 0,24.22699 -12.113497,0 V 532.1773 l 52.804621,0.13721 0.04011,40.67544 -12.466407,-0.43433 0,-24.22699 h -8.075664 v 24.22699 l -12.113496,-24.22699 z m 28.264824,52.49182 -0.179259,-7.49886 -28.087944,0.0969 6.79e-4,7.88319 8.450172,0.40681 0.377149,15.8104 -20.939118,-0.54707 V 576.5935 l 53.117904,0.13832 -0.128198,41.19449 -20.687049,-0.95449 0.06362,-16.42331 z m -20.103949,37.30319 -19.656142,-0.38308 -16.769558,-16.73095 68.853165,1.10609 0.0012,15.7994 -20.312833,-0.46513 -0.08759,7.78663 h 20.189161 L -6.8073558e-4,661.58041 -68.643147,661.38793 V 645.2366 h 20.189161 z m -8.160875,43.45345 v 8.07566 l 28.264824,0 v -8.07566 z m -12.113497,-16.15133 52.491818,0 -0.126756,40.78618 -52.365062,-0.40786 z m 40.378321,68.64315 0,-8.07567 H -56.52965 v 8.07567 h 8.075664 v 16.15133 h -20.189161 v -40.37833 l 52.491818,0 v 40.37833 l -20.500146,0.2395 8.5e-4,-16.39193 z m -20.18916,36.34049 h -20.189161 l -16.768213,-16.1588 69.260031,0.007 0,16.15133 H -36.34049 v 8.07566 h 20.189161 L -8.7916851e-7,794.63639 -69.081744,794.63484 l 0.188211,-16.21872 20.439547,0.0689 z m 32.302657,28.26482 v 40.37832 h -52.491818 v -16.15133 h 20.189161 v -8.07566 l -20.533893,0.0328 -16.138203,-16.37779 z m -12.113497,16.15133 h -8.075664 v 8.07566 l 8.075664,0 z m 0,56.52966 -41.04315,0.0698 -15.987151,-16.39306 57.030301,0.1719 v -12.11349 l 12.113497,0 0,40.37832 h -12.113497 z"
       transform="matrix(-0.00365638,-1.1243023,1.0351772,-0.00397118,-513.13964,88.185603)"
       sodipodi:nodetypes="ccccccccccccccccccccccccccccccccccccccccccccccccccccccccccccccccccccccccccccccccccccccccccccccccc" />
  </g>
</svg>
